<svg id="Capa_1" data-name="Capa 1" xmlns="http://www.w3.org/2000/svg" xmlns:xlink="http://www.w3.org/1999/xlink" viewBox="0 0 526.3 600"><defs><style>.cls-1{fill:#2a232b;}.cls-12,.cls-2{fill:#8c5537;}.cls-3{fill:#9b684d;}.cls-4{fill:#7d4425;}.cls-5{fill:none;}.cls-12,.cls-5{stroke:#5e2709;stroke-miterlimit:12;stroke-width:4.5px;}.cls-6{fill:url(#Degradado_sin_nombre);}.cls-7{fill:#386e77;}.cls-8{fill:#4d7e86;}.cls-9{fill:#184f58;}.cls-10{fill:#265e68;}.cls-11{fill:#0c4049;}.cls-13{fill:#5e2709;}.cls-14{fill:#844c2d;}.cls-15{fill:url(#Degradado_sin_nombre_2);}.cls-16{fill:url(#Degradado_sin_nombre_3);}.cls-17{fill:#681711;}.cls-18,.cls-27{opacity:0.7;}.cls-18,.cls-19,.cls-20,.cls-21,.cls-22,.cls-23,.cls-27,.cls-28,.cls-29,.cls-30,.cls-31,.cls-39,.cls-40{isolation:isolate;}.cls-18{fill:url(#Degradado_sin_nombre_4);}.cls-19,.cls-28,.cls-40{opacity:0.4;}.cls-19{fill:url(#Degradado_sin_nombre_5);}.cls-20{opacity:0.9;}.cls-21,.cls-22,.cls-29,.cls-30{opacity:0.5;}.cls-21{fill:url(#Degradado_sin_nombre_6);}.cls-22{fill:url(#Degradado_sin_nombre_7);}.cls-23,.cls-31{opacity:0.75;}.cls-23{fill:url(#Degradado_sin_nombre_8);}.cls-24{fill:url(#Degradado_sin_nombre_9);}.cls-25{fill:url(#Degradado_sin_nombre_10);}.cls-26{fill:url(#Degradado_sin_nombre_11);}.cls-27{fill:url(#Degradado_sin_nombre_12);}.cls-28{fill:url(#Degradado_sin_nombre_13);}.cls-29{fill:url(#Degradado_sin_nombre_14);}.cls-30{fill:url(#Degradado_sin_nombre_15);}.cls-31{fill:url(#Degradado_sin_nombre_16);}.cls-32{fill:url(#Degradado_sin_nombre_17);}.cls-33{fill:url(#Degradado_sin_nombre_18);}.cls-34{fill:url(#Degradado_sin_nombre_19);}.cls-35{fill:url(#Degradado_sin_nombre_20);}.cls-36{fill:#0c080c;}.cls-37{fill:#1b141c;}.cls-38{fill:#3a353a;}.cls-39,.cls-40{fill:#fff;}.cls-39{opacity:0.2;}.cls-41{fill:#782a0f;}.cls-42{fill:#87391e;}</style><linearGradient id="Degradado_sin_nombre" x1="-817.9" y1="307.25" x2="-817.9" y2="271.48" gradientTransform="translate(2720 -478) scale(3)" gradientUnits="userSpaceOnUse"><stop offset="0" stop-color="#7d4425" stop-opacity="0.8"/><stop offset="0.7" stop-color="#5e2709"/></linearGradient><linearGradient id="Degradado_sin_nombre_2" x1="-817.55" y1="282.86" x2="-817.55" y2="280.43" gradientTransform="translate(2720 -478) scale(3)" gradientUnits="userSpaceOnUse"><stop offset="0.1" stop-color="#844c2d"/><stop offset="1" stop-color="#7d4425"/></linearGradient><radialGradient id="Degradado_sin_nombre_3" cx="-1735.11" cy="265.5" r="10.22" gradientTransform="matrix(-2.46, 0, 0, 2.44, -4069.32, -417.05)" gradientUnits="userSpaceOnUse"><stop offset="0" stop-color="#fff"/><stop offset="0.54" stop-color="#fdfefe"/><stop offset="0.74" stop-color="#f6f8f9"/><stop offset="0.88" stop-color="#eaeff2"/><stop offset="0.99" stop-color="#d9e3e8"/><stop offset="1" stop-color="#d8e2e7"/></radialGradient><radialGradient id="Degradado_sin_nombre_4" cx="218.69" cy="226.44" r="13.79" gradientTransform="translate(-26.58 -9.68) scale(1.05 1.06)" gradientUnits="userSpaceOnUse"><stop offset="0" stop-color="#fff"/><stop offset="1" stop-color="#fff" stop-opacity="0"/></radialGradient><radialGradient id="Degradado_sin_nombre_5" cx="219.03" cy="226.6" r="13.78" xlink:href="#Degradado_sin_nombre_4"/><linearGradient id="Degradado_sin_nombre_6" x1="-790.5" y1="239.39" x2="-789.74" y2="238.48" gradientTransform="translate(2567 -478) scale(3)" xlink:href="#Degradado_sin_nombre_4"/><linearGradient id="Degradado_sin_nombre_7" x1="-786.76" y1="234.54" x2="-787.38" y2="235.27" gradientTransform="translate(2567 -478) scale(3)" xlink:href="#Degradado_sin_nombre_4"/><linearGradient id="Degradado_sin_nombre_8" x1="-784.77" y1="232.53" x2="-786.18" y2="234.21" gradientTransform="translate(2567 -478) scale(3)" xlink:href="#Degradado_sin_nombre_4"/><radialGradient id="Degradado_sin_nombre_9" cx="223.29" cy="227.65" fx="249.65036953157897" r="37.49" gradientTransform="translate(-26.58 -9.68) scale(1.05 1.06)" gradientUnits="userSpaceOnUse"><stop offset="0" stop-color="#7d4425"/><stop offset="0.7" stop-color="#7d4425" stop-opacity="0.3"/><stop offset="1" stop-color="#8c5537" stop-opacity="0"/></radialGradient><radialGradient id="Degradado_sin_nombre_10" cx="-1763.29" cy="-11.8" r="25.82" gradientTransform="matrix(-2.15, -1.18, -0.9, 1.6, -3596.9, -1795.28)" gradientUnits="userSpaceOnUse"><stop offset="0.94" stop-opacity="0"/><stop offset="1" stop-opacity="0.2"/></radialGradient><radialGradient id="Degradado_sin_nombre_11" cx="-733.18" cy="265.5" r="10.22" gradientTransform="translate(2135.33 -417.05) scale(2.46 2.44)" xlink:href="#Degradado_sin_nombre_3"/><radialGradient id="Degradado_sin_nombre_12" cx="338.23" cy="226.44" r="13.79" xlink:href="#Degradado_sin_nombre_4"/><radialGradient id="Degradado_sin_nombre_13" cx="338.57" cy="226.6" r="13.78" xlink:href="#Degradado_sin_nombre_4"/><linearGradient id="Degradado_sin_nombre_14" x1="-798.65" y1="239.38" x2="-797.89" y2="238.47" gradientTransform="translate(2717 -478) scale(3)" xlink:href="#Degradado_sin_nombre_4"/><linearGradient id="Degradado_sin_nombre_15" x1="-794.91" y1="234.54" x2="-795.53" y2="235.26" gradientTransform="translate(2717 -478) scale(3)" xlink:href="#Degradado_sin_nombre_4"/><linearGradient id="Degradado_sin_nombre_16" x1="-792.93" y1="232.52" x2="-794.33" y2="234.2" gradientTransform="translate(2717 -478) scale(3)" xlink:href="#Degradado_sin_nombre_4"/><radialGradient id="Degradado_sin_nombre_17" cx="335.08" cy="227.83" fx="361.44609082323996" r="37.5" xlink:href="#Degradado_sin_nombre_9"/><radialGradient id="Degradado_sin_nombre_18" cx="-886.93" cy="635.85" r="25.82" gradientTransform="matrix(2.15, -1.18, 0.9, 1.6, 1662.91, -1795.28)" xlink:href="#Degradado_sin_nombre_10"/><radialGradient id="Degradado_sin_nombre_19" cx="-759.02" cy="295.01" r="41" gradientTransform="translate(2135.33 -417.05) scale(2.46 2.44)" gradientUnits="userSpaceOnUse"><stop offset="0" stop-color="#9b684d" stop-opacity="0.5"/><stop offset="0.9" stop-color="#8c5537" stop-opacity="0"/></radialGradient><radialGradient id="Degradado_sin_nombre_20" cx="-759.02" cy="234.97" r="37.01" xlink:href="#Degradado_sin_nombre_19"/></defs><g id="svga-group-humanwrap-move"><g id="svga-group-humanwrap"><g id="svga-group-hair-back-move"><g id="svga-group-hair-back"><path id="SvgjsPath4675" class="cls-1" d="M267.67,269.37h-2.42v-2.43h2.42Z" transform="translate(0 0)"/></g></g><g id="svga-group-humanbody-single"><path id="SvgjsPath3288" class="cls-2" d="M501.4,511.53C496.05,500,481.23,482.78,464.85,478c-20.28-5.81-66.08-12.89-83.1-16.91-13.66-3.17-41.07-27.59-50.63-35.73a10.23,10.23,0,0,1-3.15-6.76c-.32-26.53,10.29-96.82,10.29-96.82H194.66s10.71,70.39,10.29,96.82a10.45,10.45,0,0,1-3.15,6.76c-9.56,8.14-37,32.56-50.63,35.73-17,3.91-62.82,11.31-83.1,17.12C51.68,483,36.87,499.9,31.51,511.42,22.38,531,20.27,566.28,20.27,596.83H512.75C512.75,566.39,510.54,531,501.4,511.53Z" transform="translate(0 0)"/><path id="SvgjsPath3289" class="cls-3" d="M412.11,473.16c60,8.67,85.2,21.25,93.07,123.67h7.46c0-30.44-2.2-65.85-11.24-85.41-5.35-11.52-20.17-28.75-36.55-33.5-20.28-5.82-66.08-12.9-83.1-16.92-13.66-3.17-45-29.38-53.26-39.84,8.3,11.52,31.52,38,51.79,45C390.05,469.67,398.14,471.15,412.11,473.16Zm-259.47-6.87c20.38-7,43.59-33.51,51.79-45-8.41,10.47-39.71,36.68-53.26,39.85-17,3.91-62.82,11.31-83.1,17.12C51.68,483,36.87,499.9,31.51,511.42,22.38,531,20.27,566.28,20.27,596.83h7.46C35.61,495,60.93,481.72,120.81,473.16,134.78,471.15,142.87,469.67,152.64,466.29Z" transform="translate(0 0)"/><path id="SvgjsPath3290" class="cls-4" d="M255.8,506.24s-12.5-3.91-17.44-5.81C212.62,490.71,129,484.36,129,484.36s88,3.49,107.47,6.77C235.31,479.5,229,442.3,229,442.3s12.71,41,15.76,51.37C246.45,499.16,255.8,506.24,255.8,506.24ZM282.37,503a4.74,4.74,0,0,1-.73.63C281.85,503.39,282.16,503.18,282.37,503Zm-26.57,3.27s7.14,7.3,10.71,7.4c4.73.11,11.87-7.08,15.13-10-3.15,2.33-10.19,3.38-13,3.49C265.25,507.2,255.8,506.24,255.8,506.24Zm51.68-18.39c-3.78.64-10.82,1.91-10.82,1.91l5.67-36.37c-1.57,7.51-11,39.54-20,49.47,4.73-3.91,15.13-5.81,20.49-6.55,25.21-3.6,25.21-3.6,101.06-12.05C403.92,484.36,332.38,483.94,307.48,487.85Z" transform="translate(0 0)"/><path id="SvgjsPath3291" class="cls-5" d="M501.4,511.53C496.05,500,481.23,482.78,464.85,478c-20.28-5.81-66.08-12.89-83.1-16.91-13.66-3.17-41.07-27.59-50.63-35.73a10.23,10.23,0,0,1-3.15-6.76c-.32-26.53,10.29-96.82,10.29-96.82H194.66s10.71,70.39,10.29,96.82a10.45,10.45,0,0,1-3.15,6.76c-9.56,8.14-37,32.56-50.63,35.73-17,3.91-62.82,11.31-83.1,17.12C51.68,483,36.87,499.9,31.51,511.42,22.38,531,20.27,566.28,20.27,596.83H512.75C512.75,566.39,510.54,531,501.4,511.53Z" transform="translate(0 0)"/></g><g id="svga-group-chinshadow-single"><path id="SvgjsPath3438" class="cls-6" d="M204.53,425.07a113.86,113.86,0,0,0,123.75,0,12.7,12.7,0,0,1-2.31-6.35c-.21-17.33,4.1-52.74,7.25-75.68-38.45-7.71-95.39-7.71-133.84,0,3.16,22.94,7.46,58.35,7.25,75.68A9.81,9.81,0,0,1,204.53,425.07Z" transform="translate(0 0)"/></g><g id="svga-group-clothes-single"><path id="SvgjsPath4694" class="cls-7" d="M524.41,596.62c-61.77-.64-158.21,0-236.47.21l9.25-83.5c.94-21.67,10.61-27.27,15.75-40.38,21-52.85,12.61-37.21,19.65-80.76,23.84,3.28,42.44,51.27,59.88,57.61,0,1.06-.84,5.81-1.89,11.94C481,480.24,512.75,460.16,524.41,596.62Zm-274-82.87c-2.63-7.61-13.45-18.92-18.59-26.21C223,474.85,215.77,461.43,205.06,430c0-.31-1.68-27.79-4.52-39.53-14.18,6.66-11.66,17.44-33.51,42.71-4.62,5.28-13.66,6.87-22.8,12.15a127.3,127.3,0,0,0-.42,13.74c-22.9,3.38-87.08,17.13-110.4,35C22.59,518.82-2.31,564.8,1.68,598.73c69.54-.74,175.33-1.48,264.41-2,0,0,3.15-48.51-16.91-83.71A4,4,0,0,0,250.44,513.75Z" transform="translate(0 0)"/><path id="SvgjsPath4695" class="cls-8" d="M145.28,461.85c-49,13.85-80.88,24-103.47,36.78-10.3,19-27.21,46-36.56,98.2l-2.52-.21C2.94,555,22,521.47,33.3,494.62c25.11-20.19,79.52-30.13,110.83-35.1C144.23,459.74,145.18,461.74,145.28,461.85Zm245.51.32c31.3,5,77.52,10.14,103.68,26.63,18.17,27.17,28.15,65.43,28.36,107.08l-2.52.21c-9.24-52.22-20.48-81-30.78-100-22.58-12.79-50.95-17.76-99.9-31.61C389.74,464.39,390.68,462.38,390.79,462.17Z" transform="translate(0 0)"/><path id="SvgjsPath4696" class="cls-9" d="M314.83,514.91c-4.2-2.43-12.29-2.85-17.22,1.48,1.47-4.33,6.82-7.82,14-8.56,22.16,4.33,49.06,33.82,75.63,44.82C360.85,548.1,335,526.22,314.83,514.91Zm-64,2.43-2.94-5.28c-5,.1-17.13,1.16-22.17,5.6-22.9,20.08-59.35,30.12-75.63,40.59C233.74,536.16,217.77,518.72,250.86,517.34Z" transform="translate(0 0)"/><path id="SvgjsPath4697" class="cls-10" d="M305,509.52c-3.68,1.06-7.56,3.81-7.77,3.81.94-21.67,10.61-27.27,15.75-40.38,21-52.85,12.61-37.21,19.65-80.76,4.73.64,9.35,3.49,13.76,7.51-3.05,23.15-9.45,41.43-18.8,62.36,11-6.13,22.9-13.63,33.61-19.55C338.89,462.48,312.1,480.56,305,509.52Zm-54.52,4.23c-2.63-7.61-13.45-18.92-18.59-26.21C223,474.85,215.77,461.43,205.06,430c0-.31-1.68-27.79-4.52-39.53-8.93,4.23-8.19,7.19-14.18,17.34,4.83,24.73,14.6,40.38,28.36,60.88C203,461,186.46,447.9,170.18,439.86c27.42,20.4,52,45.67,70.59,72.73C246.76,510.68,247,512.06,250.44,513.75Z" transform="translate(0 0)"/><path id="SvgjsPath4698" class="cls-11" d="M496.47,486.37c-21-12.36-57.47-20.61-104.74-26.32.63-6,1.16-10.36,1.16-10.46-17.55-6-37-54.75-61.25-57.71-18,109.5-28.89,72.08-37.82,120.07-1.68,8.78-7,79.28-7.24,82.77h-19C268.93,551,252,516.5,251,514.28c-2.2-7.61-13.65-19.45-18.8-27-13.34-19.23-19.43-36.78-26.79-57.39,0,0-1.15-28.33-4.09-39.85-14.61,6.66-12.51,14.8-34.46,40.27-6.2,7.19-14.6,10.15-22.9,15a95.2,95.2,0,0,0-.32,13.32c-84.35,10.57-102.74,29.17-113,33.61C23.32,515.55.21,549.16,0,599.15c72.9,0,83.83,1,304,.22q51.23-.17,102.43-.53C456.86,598.52,526.3,600,526.3,600,526.3,548,514.85,516.71,496.47,486.37ZM309.9,480.14c17.23-33.4,17.23-41.33,23.84-86.89,20.8,6.87,39.82,51.05,56.94,56.55-12.19,62.26-5.57,86.25-4.73,100.84-6.3-3.38-11.24-6.45-17.33-10.15-19-11.31-32.15-24.94-52.31-33.08-5.47-2.33-13.35,1.16-18.18,4.65C300.76,489.12,303.49,492.71,309.9,480.14ZM314,508.89Zm-16.07,9.93c.95-4.86,8.3-7.61,12-8.88-4.73,20.83-10.93,48.94-11,84.78h-9.25C289.83,591.65,294,538.48,297.92,518.82Zm-34,76H258c2.73-31.18-13.76-58-21.43-80.54,2-.21,7.88-1.8,9.56-1.48C250.23,515.76,268.93,565.33,263.89,594.82ZM168.08,432.68c23.53-26.74,18.59-33.3,31.62-41.23Q201,403,201.59,414.6c1.37,27.48-2.31,8.67,8.61,37,16.08,41.64,30.36,45.13,37.72,59.4-26-1.8-29.84,17.55-53.26,25.26-21.54,8.46-15.66,4.55-45.28,21.35,8.3-58.13-4.31-85-4.31-111.09C153.58,442.19,161.78,439.76,168.08,432.68ZM3.57,596.3c4.1-50.42,23.85-83,32-100.84,11.45-7.29,49.27-26.63,108.1-35.09.84,16.07,4.73,30.13,5,46.19.63,15.33.53,34.35-.63,53,10.93-5,21.43-10.89,33.72-15.22,34-12.16,28.15-14.91,44.44-26,3.88-2.64,3.36-2.74,6.72-3.59,6.3,19.45,26.26,46.09,21.64,80C167.87,594.93,81.41,595.45,3.57,596.3Zm298.87-1.58c-.74-30.34,6.51-56.13,11.45-85.62,12,.1,45.07,32.77,74.27,44.92.63-10.25-.42-31.6-.42-55.39,0-.74,2.21-22,3.78-36.15,27.73,7.93,72.8,7.93,103.05,29.18,12.09,23,26.69,48.94,27.74,103.9C453.4,594.93,378.39,594.72,302.44,594.72Z" transform="translate(0 0)"/></g><g id="svga-group-head"><g id="svga-group-ears-left-move"><g id="svga-group-ears-left"><path id="SvgjsPath3561" class="cls-12" d="M136.56,223.07c-2.41-6-19.85-14.58-27.62-13.31-8.72,1.48-11.87,10.57-10.72,17.33,2.73,15.86,9.88,22.52,13,34.88,2.73,10.47,8.4,16.39,11.34,20.83,3.47,5.39,6.73,17.86,7.46,19.76,1.16,2.85,5.15,9.83,12.29,9.51,8.2-.42,18.6-16.27,18.7-19.87C162,273.07,142.76,238.82,136.56,223.07Z" transform="translate(0 0)"/><path id="SvgjsPath3562" class="cls-13" d="M138.35,287.55a6.47,6.47,0,0,0-.21-5c-1.68-3-6-8.45-6.93-11.73-.84-2.64-.42-8.35-.53-11.2-.21-5-3.67-8.35-4.73-11.21-7.14-19-16.7-30.76-22.16-33.19-4,9.73-.84,16.81,4.73,31.82-3.37-20.3-.11-26.74-.11-26.74s9.88,8.45,14.81,27.27c.84,3.38-2.73,10.46-2,14,.84,4.33,10.29,12.68,12.92,16.17C136.14,280.47,138.35,287.55,138.35,287.55Z" transform="translate(0 0)"/></g></g><g id="svga-group-ears-right-move"><g id="svga-group-ears-right"><path id="SvgjsPath3563" class="cls-12" d="M395.83,223.07c2.41-6,19.85-14.58,27.63-13.31,8.72,1.48,11.87,10.57,10.71,17.33-2.73,15.86-9.87,22.52-13,34.88-2.74,10.47-8.41,16.39-11.35,20.83-3.47,5.39-6.72,17.86-7.46,19.76-1.15,2.85-5.15,9.83-12.29,9.51-8.19-.42-18.59-16.27-18.7-19.87C370.41,273.07,389.63,238.82,395.83,223.07Z" transform="translate(0 0)"/><path id="SvgjsPath3564" class="cls-13" d="M393.94,287.55a6.47,6.47,0,0,1,.21-5c1.68-3,6-8.45,6.93-11.73.84-2.64.42-8.35.53-11.2.21-5,3.67-8.35,4.72-11.21,7.15-19,16.71-30.76,22.17-33.19,4,9.73.84,16.81-4.73,31.82,3.36-20.3.11-26.74.11-26.74s-9.88,8.45-14.82,27.27c-.84,3.38,2.74,10.46,2,14-.84,4.33-10.29,12.68-12.92,16.17C396.25,280.47,393.94,287.55,393.94,287.55Z" transform="translate(0 0)"/></g></g><g id="svga-group-faceshape-wrap"><g id="svga-group-faceshape-single"><path id="SvgjsPath3435" class="cls-2" d="M266.51,26.37c-82.78-.11-149.8,67-149.9,150a151.87,151.87,0,0,0,4.83,38.15h0c0,.11,21.74,87.21,37.82,131.92C173,384.58,216,419,266.41,419s93.49-34.46,107.15-72.61c16.07-44.71,37.82-131.71,37.82-131.92h0a151.87,151.87,0,0,0,4.83-38.15C416.21,93.38,349.29,26.26,266.51,26.37Z" transform="translate(0 0)"/><path id="SvgjsPath3436" class="cls-14" d="M381.65,80.38C400,105.54,408.43,136.93,408.54,171c0,15.75-4.62,38.16-4.62,38.16s-21,87.2-36.46,131.92c-13.23,38.15-52.21,72.61-100.84,72.61S179,379.19,165.77,341c-15.55-44.72-36.45-131.71-36.45-131.92,0,0-4.63-24.73-4.63-38.16,0-34,8.51-65.42,26.79-90.58a149.62,149.62,0,0,0-34.66,96,151.87,151.87,0,0,0,4.83,38.15h0c0,.11,21.74,87.21,37.82,131.92C173.23,384.58,216.19,419,266.62,419s93.49-34.46,107.15-72.61c16.07-44.71,37.82-131.71,37.82-131.92h0a151.87,151.87,0,0,0,4.83-38.15A150.32,150.32,0,0,0,381.65,80.38Z" transform="translate(0 0)"/><path id="SvgjsPath3437" class="cls-5" d="M266.51,26.37c-82.78-.11-149.8,67-149.9,150a151.87,151.87,0,0,0,4.83,38.15h0c0,.11,21.74,87.21,37.82,131.92C173,384.58,216,419,266.41,419s93.49-34.46,107.15-72.61c16.07-44.71,37.82-131.71,37.82-131.92h0a151.87,151.87,0,0,0,4.83-38.15C416.21,93.38,349.29,26.26,266.51,26.37Z" transform="translate(0 0)"/></g></g><g id="svga-group-mouth-single-move"><g id="svga-group-mouth-single"><path id="SvgjsPath3536" class="cls-15" d="M257.16,363.87l20.38-.53C275.23,374.23,258.84,372.64,257.16,363.87Z" transform="translate(0 0)"/><path id="SvgjsPath3540" class="cls-13" d="M257.48,364.5c-1-.1-.74-1.37.21-1.37.1,0,10.61,1.37,19.43-.53a.66.66,0,1,1,.32,1.27A62.1,62.1,0,0,1,257.48,364.5Zm9.24-8.67c-3.68,0-7.25-1.26-10.92-1.9-4-.74-8.09-.1-12.08.21s-13.14,0-15.66-1.58a1.92,1.92,0,0,1,.42-3.49c1.47-.53,3.89.53,5.36.84,7,1.27,10.82-.1,17-.31,9.45-.32,10.5,3.7,22.27,1.27,12.71-2.54,18.49-.64,27.52-3.39,1.26-.42,2.73-1.37,4.1-.74a2,2,0,0,1-.11,3.6c-8.4,3.7-17.64,2.22-27,3.7C274.08,354.78,270.4,355.83,266.72,355.83Z" transform="translate(0 0)"/></g></g><g id="svga-group-eyes-left-move"><g id="svga-group-eyes-left"><g id="svga-group-eyesback-left"><path id="SvgjsPath4585" class="cls-16" d="M170.29,227.09c-.53,6.77,4.09,14.69,30.78,17,23.53,2,33.51-1.8,34.24-9.51s-8.4-17-31.72-18.29C182.79,215.25,170.92,219.38,170.29,227.09Z" transform="translate(0 0)"/></g><g id="svga-group-eyesiriswrapper-left"><g id="svga-group-eyesiriscontrol-left"><g id="svga-group-eyesiris-left"><path id="SvgjsPath3368" class="cls-17" d="M218.5,229.79a14.81,14.81,0,0,1-29.62,0h0a14.81,14.81,0,0,1,29.62,0Z" transform="translate(0 0)"/><path id="SvgjsPath3369" class="cls-18" d="M202,215.31h-.21c.11.31.11.63.21.95A2.76,2.76,0,0,0,202,215.31Zm.11.95c.21,4.75.42,9.09,1.26,10.67C203.8,225.24,203.06,221,202.12,216.26Zm1.26,10.67a1,1,0,0,1-.53.74c-.21.11-.52,0-.94-.21.1.42.1.74-.11.95s-.52.21-.94.21c.31.32.42.64.31.85a1.47,1.47,0,0,1-.73.63.92.92,0,0,1,.73.64c.11.21-.1.53-.31.84.42,0,.73,0,.94.21s.21.53.11,1a1.05,1.05,0,0,1,.94-.22,1.42,1.42,0,0,1,.53.74c.21-.42.42-.63.73-.63a1.27,1.27,0,0,1,.84.42c0-.42.11-.74.32-.84a1.34,1.34,0,0,1,.94,0,1,1,0,0,1-.1-.95c.1-.22.42-.32.84-.43a1.07,1.07,0,0,1-.53-.74,1.11,1.11,0,0,1,.53-.74.93.93,0,0,1-.84-.42,1,1,0,0,1,.1-.95c-.42.11-.73.21-.94,0s-.32-.42-.32-.85c-.31.32-.52.53-.84.43S203.59,227.36,203.38,226.93Zm1.47.21c1.15-1.26,2.52-5.39,3.88-10C206.63,221.44,204.85,225.35,204.85,227.14Zm3.88-10c.11-.31.32-.63.42-.95a.1.1,0,0,1-.1-.1C208.94,216.47,208.84,216.79,208.73,217.1ZM206.11,228c1.68-.63,4.73-3.59,8.09-7.08C210.31,223.76,207,226.4,206.11,228Zm8.09-7.08c.21-.21.52-.32.73-.53l-.1-.11Zm-7.46,8.35c1.78.21,5.88-1.06,10.5-2.54C212.52,227.57,208.21,228.31,206.74,229.26Zm10.61-2.54c.31,0,.52-.1.84-.1v-.11A3.1,3.1,0,0,1,217.35,226.72Zm-10.61,4.12c1.47,1.06,5.67,1.8,10.5,2.65C212.73,231.9,208.52,230.63,206.74,230.84Zm10.5,2.54a1.47,1.47,0,0,0,.74.21v-.1A2,2,0,0,1,217.24,233.38Zm-11.13-1.27c.84,1.59,4.2,4.23,8.09,7.08C210.84,235.81,207.68,232.75,206.11,232.11Zm8.09,7.19.42.42.1-.1A2.14,2.14,0,0,1,214.2,239.3ZM204.85,233c0,1.79,1.68,5.71,3.78,10C207.26,238.35,206,234.33,204.85,233Zm3.78,10a5.14,5.14,0,0,0,.1.53h.11C208.84,243.32,208.73,243.21,208.63,243Zm-5.25-9.83c-.84,1.58-1.16,5.81-1.37,10.67C203,239.09,203.8,234.86,203.38,233.17ZM202,243.74c0,.21-.1.32-.1.53h.1Zm-.1-11.1c-1.47,1-3.79,4.65-6.2,8.77C198.86,237.71,201.49,234.33,201.91,232.64Zm-6.2,8.77-.42.43a.1.1,0,0,1,.1.1C195.5,241.73,195.6,241.62,195.71,241.41Zm5.25-9.93c-1.79.21-5.46,2.43-9.56,5C195.81,234.54,199.7,232.85,201,231.48Zm-9.66,5-.63.31s0,.11.1.11A1.77,1.77,0,0,1,191.3,236.45Zm9.24-6.45c-1.68-.64-6-.42-10.82,0C194.55,230.42,198.86,230.63,200.54,230Zm-10.82,0a2.19,2.19,0,0,1-.84-.11V230ZM201,228.62c-1.16-1.26-5-3.06-9.56-5C195.5,226.19,199.17,228.41,201,228.62Zm-9.56-5.07c-.21-.21-.52-.32-.73-.53a.11.11,0,0,1-.11.11A2.21,2.21,0,0,0,191.4,223.55Zm10.51,3.91c-.42-1.69-3-5.07-6.1-8.88C198.23,222.81,200.44,226.51,201.91,227.46Zm-6.1-8.88c-.21-.31-.31-.53-.52-.84l-.11.1A4.41,4.41,0,0,0,195.81,218.58Z" transform="translate(0 0)"/><path id="SvgjsPath3373" class="cls-19" d="M205.9,215.31h-.21a3.78,3.78,0,0,1-.11,1.05C205.69,216.05,205.79,215.62,205.9,215.31Zm-.21,1.05c-1.05,4.65-1.89,8.88-1.58,10.57C205,225.35,205.37,221.12,205.69,216.36Zm-1.58,10.57c-.21.32-.42.64-.73.64a1.25,1.25,0,0,1-.84-.43c0,.43-.11.74-.32.85a1.34,1.34,0,0,1-.94,0,1,1,0,0,1,.1.95c-.1.21-.42.32-.84.42a1.11,1.11,0,0,1,.53.74,1.07,1.07,0,0,1-.53.74c.42.11.74.21.84.43s0,.52-.1.95a1.34,1.34,0,0,1,.94,0c.21.1.32.42.32.84.31-.31.52-.53.84-.42s.52.32.63.63a1,1,0,0,1,.52-.74c.21-.1.53,0,.95.32-.11-.42-.11-.74.1-.95s.53-.21.95-.21c-.32-.32-.42-.63-.32-.85a1,1,0,0,1,.74-.52,1,1,0,0,1-.74-.64c-.1-.21.11-.53.42-.84-.42,0-.73,0-.94-.22s-.21-.52-.11-1a1,1,0,0,1-.94.21A1.68,1.68,0,0,1,204.11,226.93Zm1.37.53c1.47-1,3.78-4.54,6.3-8.67C208.63,222.49,206,225.77,205.48,227.46Zm6.41-8.67c.21-.21.42-.52.63-.74l-.11-.1A9,9,0,0,0,211.89,218.79Zm-5.47,9.83c1.79-.21,5.57-2.32,9.67-4.75C211.68,225.66,207.68,227.36,206.42,228.62Zm9.77-4.75a6.83,6.83,0,0,0,.84-.32s0-.11-.1-.11S216.4,223.76,216.19,223.87Zm-9.35,6.23c1.68.64,6,.53,10.82.22C212.83,229.79,208.52,229.47,206.84,230.1Zm10.82.22c.32,0,.53.1.84.1v-.1Zm-11.24,1.26c1.16,1.38,5.05,3.17,9.46,5.18C211.78,234,208.21,231.79,206.42,231.58Zm9.46,5.18c.21.11.42.32.63.43,0,0,0-.11.1-.11A5.24,5.24,0,0,1,215.88,236.76Zm-10.51-4.12c.42,1.69,2.94,5.18,6,9C208.94,237.4,206.84,233.7,205.37,232.64Zm6,9a2,2,0,0,0,.32.53.1.1,0,0,0,.1-.1C211.57,241.94,211.47,241.73,211.36,241.62Zm-7.46-8.45c-.42,1.69.21,5.92,1,10.67C205,239,204.74,234.65,203.9,233.17Zm1.16,10.67v.53h.1A1.2,1.2,0,0,1,205.06,243.84ZM202.43,233c-1.15,1.27-2.63,5.39-4.1,9.93C200.54,238.56,202.43,234.65,202.43,233Zm-4,9.93a1.08,1.08,0,0,0-.21.53h.1A.47.47,0,0,1,198.44,242.89ZM201.28,232c-1.69.63-4.84,3.48-8.3,6.87C197,236.13,200.33,233.59,201.28,232Zm-8.3,7c-.21.11-.32.21-.53.32l.11.11C192.66,239.19,192.87,239.09,193,239Zm7.56-8.24c-1.79-.21-5.88.84-10.61,2.32C194.87,232.32,199.07,231.69,200.54,230.74ZM190,233.06c-.21,0-.42.11-.74.11v.1A2.94,2.94,0,0,1,190,233.06Zm10.61-3.91c-1.48-1.05-5.68-1.9-10.4-2.85C194.76,228,198.86,229.36,200.65,229.15Zm-10.51-2.75c-.21-.1-.52-.21-.74-.31v.1A1.93,1.93,0,0,0,190.14,226.4Zm11.24,1.48c-.73-1.58-4.1-4.33-7.88-7.29C196.65,224.18,199.7,227.25,201.38,227.88Zm-8-7.29-.63-.63-.11.1A4.3,4.3,0,0,1,193.4,220.59Zm9.24,6.45c0-1.8-1.57-5.71-3.57-10.15C200.23,221.65,201.49,225.77,202.64,227ZM199,217a3.32,3.32,0,0,1-.21-.95.1.1,0,0,0-.1.1A7.19,7.19,0,0,1,199,217Z" transform="translate(0 0)"/><path id="SvgjsPath3377" class="cls-17" d="M209.47,229.79a5.78,5.78,0,1,1-5.78-5.71A5.63,5.63,0,0,1,209.47,229.79Z" transform="translate(0 0)"/><path id="SvgjsPath3378" class="cls-20" d="M209.47,229.79a5.78,5.78,0,1,1-5.78-5.71A5.63,5.63,0,0,1,209.47,229.79Z" transform="translate(0 0)"/><path id="SvgjsPath3379" class="cls-21" d="M195.6,236.45a2.45,2.45,0,0,1,3.36.63,2.39,2.39,0,0,1-.63,3.28,2.46,2.46,0,0,1-3.36-.64,2.38,2.38,0,0,1,.63-3.27Z" transform="translate(0 0)"/><path id="SvgjsPath3383" class="cls-22" d="M208.31,228.94c-.63.95-2.41.85-4-.21s-2.31-2.64-1.68-3.49h0c.63-1,2.42-.84,4,.21s2.31,2.65,1.68,3.49Z" transform="translate(0 0)"/><path id="SvgjsPath3387" class="cls-23" d="M215.35,226.51c-1.36,2.11-5,2.22-8.09.32s-4.41-5.29-2.94-7.4,5-2.22,8.09-.32,4.31,5.29,2.94,7.4Z" transform="translate(0 0)"/></g></g></g><g id="svga-group-eyesfront-left"><path id="SvgjsPath4610" class="cls-2" d="M157.57,235.76c3,33.51,26.27,58.87,52,56.65s44.23-31.18,41.29-64.79-26.26-58.88-52-56.66S154.63,202.15,157.57,235.76Zm12.72-8.67c.63-7.71,12.5-11.84,33.3-10.78,23.32,1.16,32.46,10.57,31.72,18.29s-10.71,11.52-34.24,9.51C174.49,241.78,169.76,233.86,170.29,227.09Z" transform="translate(0 0)"/><path id="SvgjsPath4611" class="cls-24" d="M162.62,232.06c1.47,18.81,25.31,32.55,48.95,30.33s43.18-16.38,41.5-35.19-22.28-32.24-46-30.13S160.52,206.37,162.62,232.06Zm7.67-5c.63-7.71,12.5-11.84,33.3-10.78,23.32,1.16,32.46,10.57,31.72,18.29s-10.71,11.52-34.24,9.51C174.49,241.78,169.76,233.86,170.29,227.09Z" transform="translate(0 0)"/><path id="SvgjsPath4616" class="cls-25" d="M170.29,227.09c-.53,6.77,4.09,14.69,30.78,17,23.53,2,33.51-1.8,34.24-9.51s-8.4-17-31.72-18.29C182.79,215.25,170.92,219.38,170.29,227.09Z" transform="translate(0 0)"/><path id="SvgjsPath4620" class="cls-13" d="M231,218.11a59.5,59.5,0,0,0-8.08-3.91s6.3,1.48,8.82,3.17,5.15,5.81,5.15,5.81A49.91,49.91,0,0,0,231,218.11Zm-45.69-5.71s-6.52-.11-11.24,2.75a16,16,0,0,0-6,6.55,58.51,58.51,0,0,1,6.93-6.13C177.64,213.88,185.31,212.4,185.31,212.4Z" transform="translate(0 0)"/><path id="SvgjsPath4621" d="M204.32,216.73c-15.13-.53-38.45,1-33,15.12-7.88-4.76-1.79-21.46,34.45-18.5,17.55,1.48,38.45,10.46,28.79,23.78C237.62,223.29,219.24,217.26,204.32,216.73Zm26.79,24.63-7.46,2.33c-13,.21-20.27-.64-32.46-1.27-5.57-.21-10.61-3-17.23-6a25.31,25.31,0,0,0,17.13,7.82c11.76.64,19.75.85,33,1Z" transform="translate(0 0)"/></g></g></g><g id="svga-group-eyes-right-move"><g id="svga-group-eyes-right"><g id="svga-group-eyesback-right"><path id="SvgjsPath4593" class="cls-26" d="M362.63,227.09c.53,6.77-4.09,14.69-30.78,17-23.53,2-33.51-1.8-34.24-9.51s8.4-17,31.72-18.29C350.13,215.25,362,219.38,362.63,227.09Z" transform="translate(0 0)"/></g><g id="svga-group-eyesiriswrapper-right"><g id="svga-group-eyesiriscontrol-right"><g id="svga-group-eyesiris-right"><path id="SvgjsPath3391" class="cls-17" d="M344,229.79a14.82,14.82,0,0,1-29.63,0h0a14.82,14.82,0,0,1,29.63,0Z" transform="translate(0 0)"/><path id="SvgjsPath3392" class="cls-27" d="M327.65,215.31h-.21c.11.31.11.63.21.95Zm0,.95c.21,4.75.42,9.09,1.26,10.67C329.33,225.24,328.6,221,327.65,216.26Zm1.26,10.67a1,1,0,0,1-.52.74c-.21.11-.53,0-.95-.21.11.42.11.74-.1.95s-.53.21-.95.21c.32.32.42.64.32.85a1.55,1.55,0,0,1-.74.63,1,1,0,0,1,.74.64c.1.21-.11.53-.32.84.42,0,.74,0,.95.21s.21.53.1,1a1.07,1.07,0,0,1,.95-.22,1.36,1.36,0,0,1,.52.74c.21-.42.42-.63.74-.63a1.29,1.29,0,0,1,.84.42c0-.42.1-.74.31-.84a1.37,1.37,0,0,1,.95,0,1.08,1.08,0,0,1-.11-.95c.11-.22.42-.32.84-.43a1.08,1.08,0,0,1-.52-.74,1.12,1.12,0,0,1,.52-.74.94.94,0,0,1-.84-.42,1.09,1.09,0,0,1,.11-.95c-.42.11-.74.21-.95,0a1,1,0,0,1-.31-.85c-.32.32-.53.53-.84.43S329.12,227.36,328.91,226.93Zm1.47.21c1.16-1.26,2.52-5.39,3.89-10C332.17,221.44,330.38,225.35,330.38,227.14Zm3.89-10c.1-.31.31-.63.42-.95,0,0-.11,0-.11-.1C334.48,216.47,334.37,216.79,334.27,217.1ZM331.64,228c1.68-.63,4.73-3.59,8.09-7.08C335.84,223.76,332.48,226.4,331.64,228Zm8.2-7.08c.21-.21.52-.32.73-.53l-.1-.11Zm-7.46,8.35c1.78.21,5.88-1.06,10.5-2.54C338.05,227.57,333.85,228.31,332.38,229.26Zm10.5-2.54c.32,0,.53-.1.84-.1v-.11A3,3,0,0,1,342.88,226.72Zm-10.5,4.12c1.47,1.06,5.67,1.8,10.5,2.65C338.26,231.9,334.16,230.63,332.38,230.84Zm10.5,2.54a1.47,1.47,0,0,0,.74.21v-.1A1.5,1.5,0,0,1,342.88,233.38Zm-11.24-1.27c.84,1.59,4.2,4.23,8.09,7.08C336.37,235.81,333.32,232.75,331.64,232.11Zm8.09,7.19.42.42.11-.1C340.05,239.51,339.94,239.41,339.73,239.3ZM330.38,233c0,1.79,1.68,5.71,3.78,10C332.9,238.35,331.54,234.33,330.38,233Zm3.78,10a4.72,4.72,0,0,0,.11.53h.1A1.08,1.08,0,0,0,334.16,243Zm-5.25-9.83c-.84,1.58-1.15,5.81-1.36,10.67C328.6,239.09,329.33,234.86,328.91,233.17Zm-1.36,10.57c0,.21-.11.32-.11.53h.11Zm0-11.1c-1.48,1-3.79,4.65-6.2,8.77C324.39,237.71,327,234.33,327.55,232.64Zm-6.2,8.77-.42.43a.1.1,0,0,1,.1.1C321.14,241.73,321.24,241.62,321.35,241.41Zm5.15-9.93c-1.79.21-5.47,2.43-9.56,5C321.35,234.54,325.34,232.85,326.5,231.48Zm-9.56,5-.63.31s0,.11.1.11A1.06,1.06,0,0,1,316.94,236.45Zm9.24-6.45c-1.68-.64-6-.42-10.82,0C320.19,230.42,324.5,230.63,326.18,230Zm-10.82,0a2.48,2.48,0,0,1-.84-.11V230Zm11.14-1.38c-1.16-1.26-5.05-3.06-9.56-5C321,226.19,324.71,228.41,326.5,228.62Zm-9.56-5.07c-.21-.21-.53-.32-.74-.53,0,0,0,.11-.1.11A3.15,3.15,0,0,0,316.94,223.55Zm10.61,3.91c-.42-1.69-3.05-5.07-6.1-8.88C323.76,222.81,326.07,226.51,327.55,227.46Zm-6.2-8.88c-.21-.31-.32-.53-.53-.84l-.1.1A4.41,4.41,0,0,0,321.35,218.58Z" transform="translate(0 0)"/><path id="SvgjsPath3396" class="cls-28" d="M331.43,215.31h-.21a4.15,4.15,0,0,1-.1,1.05A3.81,3.81,0,0,0,331.43,215.31Zm-.21,1.05c-1.05,4.65-1.89,8.88-1.57,10.57C330.49,225.35,330.91,221.12,331.22,216.36Zm-1.57,10.57c-.21.32-.42.64-.74.64a1.26,1.26,0,0,1-.84-.43c0,.43-.1.74-.31.85a1.37,1.37,0,0,1-.95,0,1.09,1.09,0,0,1,.11.95c-.11.21-.42.32-.85.42a1.11,1.11,0,0,1,.53.74,1.07,1.07,0,0,1-.53.74c.43.11.74.21.85.43s0,.52-.11.95a1.37,1.37,0,0,1,.95,0c.21.1.31.42.31.84.32-.31.53-.53.84-.42s.53.32.63.63a1.08,1.08,0,0,1,.53-.74c.21-.1.52,0,.94.32-.1-.42-.1-.74.11-.95s.52-.21.94-.21c-.31-.32-.42-.63-.31-.85a1,1,0,0,1,.73-.52.92.92,0,0,1-.73-.64c-.11-.21.1-.53.42-.84-.42,0-.74,0-.95-.22s-.21-.52-.1-1a1.07,1.07,0,0,1-.95.21A2.56,2.56,0,0,1,329.65,226.93Zm1.47.53c1.47-1,3.78-4.54,6.3-8.67C334.27,222.49,331.54,225.77,331.12,227.46Zm6.3-8.67c.21-.21.42-.52.63-.74l-.1-.1A5.59,5.59,0,0,1,337.42,218.79Zm-5.36,9.83c1.79-.21,5.57-2.32,9.67-4.75C337.21,225.66,333.22,227.36,332.06,228.62Zm9.67-4.75c.31-.11.52-.21.84-.32a.11.11,0,0,0-.11-.11A4.7,4.7,0,0,1,341.73,223.87Zm-9.35,6.23c1.68.64,6,.53,10.82.22C338.37,229.79,334.06,229.47,332.38,230.1Zm10.82.22c.31,0,.52.1.84.1v-.1ZM332,231.58c1.15,1.38,5,3.17,9.45,5.18C337.42,234,333.74,231.79,332,231.58Zm9.45,5.18c.21.11.42.32.63.43a.11.11,0,0,1,.11-.11C341.94,237,341.62,236.87,341.41,236.76Zm-10.5-4.12c.42,1.69,2.94,5.18,6,9C334.58,237.4,332.38,233.7,330.91,232.64Zm6,9a2.05,2.05,0,0,0,.31.53s.11,0,.11-.1A1.53,1.53,0,0,1,336.9,241.62Zm-7.36-8.45c-.42,1.69.21,5.92,1,10.67C330.49,239,330.28,234.65,329.54,233.17Zm1,10.67v.53h.11A4.72,4.72,0,0,0,330.59,243.84ZM328.07,233c-1.15,1.27-2.63,5.39-4.1,9.93C326.18,238.56,328,234.65,328.07,233Zm-4.1,9.93c-.1.21-.21.32-.21.53h.11A.84.84,0,0,1,324,242.89ZM326.81,232c-1.68.63-4.83,3.48-8.3,6.87C322.5,236.13,326,233.59,326.81,232Zm-8.3,7c-.21.11-.31.21-.52.32l.1.11Zm7.67-8.24c-1.79-.21-5.88.84-10.61,2.32C320.4,232.32,324.71,231.69,326.18,230.74Zm-10.61,2.32c-.21,0-.42.11-.74.11v.1A2.94,2.94,0,0,1,315.57,233.06Zm10.61-3.91c-1.47-1.05-5.67-1.9-10.4-2.85C320.3,228,324.39,229.36,326.18,229.15Zm-10.51-2.75c-.21-.1-.52-.21-.73-.31v.1A2.44,2.44,0,0,0,315.67,226.4Zm11.25,1.48c-.74-1.58-4.1-4.33-7.88-7.29C322.29,224.18,325.23,227.25,326.92,227.88Zm-8-7.29-.63-.63-.1.1A4.61,4.61,0,0,1,318.93,220.59Zm9.25,6.45c0-1.8-1.58-5.71-3.58-10.15C325.76,221.65,327,225.77,328.18,227Zm-3.58-10a3.32,3.32,0,0,1-.21-.95.1.1,0,0,0-.1.1A1.7,1.7,0,0,0,324.6,217Z" transform="translate(0 0)"/><path id="SvgjsPath3400" class="cls-17" d="M335.11,229.79a5.78,5.78,0,1,1-5.78-5.71A5.69,5.69,0,0,1,335.11,229.79Z" transform="translate(0 0)"/><path id="SvgjsPath3401" class="cls-20" d="M335.11,229.79a5.78,5.78,0,1,1-5.78-5.71A5.69,5.69,0,0,1,335.11,229.79Z" transform="translate(0 0)"/><path id="SvgjsPath3402" class="cls-29" d="M321.14,236.45a2.46,2.46,0,0,1,3.36.63,2.4,2.4,0,0,1-.63,3.28,2.46,2.46,0,0,1-3.36-.64,2.38,2.38,0,0,1,.63-3.27Z" transform="translate(0 0)"/><path id="SvgjsPath3406" class="cls-30" d="M333.85,228.94c-.63.95-2.42.85-4-.21s-2.31-2.64-1.68-3.49h0c.63-1,2.41-.84,4,.21s2.31,2.65,1.68,3.49Z" transform="translate(0 0)"/><path id="SvgjsPath3410" class="cls-31" d="M340.89,226.51c-1.37,2.11-5.05,2.22-8.09.32s-4.41-5.29-2.94-7.4,5-2.22,8.09-.32,4.3,5.29,2.94,7.4Z" transform="translate(0 0)"/></g></g></g><g id="svga-group-eyesfront-right"><path id="SvgjsPath4631" class="cls-2" d="M334.16,171c-25.73-2.22-49,23.15-52,56.66s15.55,62.57,41.29,64.79,48.95-23.14,52-56.65S359.9,173.18,334.16,171Zm-2.31,73.15c-23.53,2-33.51-1.8-34.24-9.51s8.4-17,31.72-18.29c20.8-1.06,32.67,3.07,33.3,10.78C363.16,233.86,358.54,241.78,331.85,244.11Z" transform="translate(0 0)"/><path id="SvgjsPath4632" class="cls-32" d="M326,197.18c-23.64-2.12-44.23,11.31-46,30.12s17.75,33,41.49,35.2,47.49-11.63,49-30.34C372.4,206.37,349.61,199.29,326,197.18Zm5.88,46.93c-23.53,2-33.51-1.8-34.24-9.51s8.4-17,31.72-18.29c20.8-1.06,32.67,3.07,33.3,10.78C363.16,233.86,358.54,241.78,331.85,244.11Z" transform="translate(0 0)"/><path id="SvgjsPath4637" class="cls-33" d="M362.63,227.09c.53,6.77-4.09,14.69-30.78,17-23.53,2-33.51-1.8-34.24-9.51s8.4-17,31.72-18.29C350.13,215.25,362,219.38,362.63,227.09Z" transform="translate(0 0)"/><path id="SvgjsPath4641" class="cls-13" d="M296.14,223.07s2.62-4.12,5.14-5.81,8.83-3.17,8.83-3.17A59.43,59.43,0,0,0,302,218,50.38,50.38,0,0,0,296.14,223.07Zm61.87-7.5a57.64,57.64,0,0,1,6.93,6.13,16.94,16.94,0,0,0-6-6.55c-4.63-2.86-11.24-2.75-11.24-2.75S355.28,213.88,358,215.57Z" transform="translate(0 0)"/><path id="SvgjsPath4642" d="M298.45,237.24c-9.67-13.43,11.24-22.41,28.78-23.78,36.24-3,42.34,13.74,34.46,18.49,5.46-14.27-17.86-15.64-33-15.11C313.78,217.26,295.4,223.29,298.45,237.24Zm10.5,8c13.24-.1,21.22-.21,33-1a25.83,25.83,0,0,0,17.12-7.82c-6.62,3.06-11.66,5.81-17.23,6-12.18.53-19.43,1.48-32.46,1.27l-7.46-2.32Z" transform="translate(0 0)"/></g></g></g><g id="svga-group-facehighlight-single"><path id="SvgjsPath3280" class="cls-34" d="M367.46,302.24c.11,55.18-45.06,100-100.84,100.1s-101.06-44.6-101.06-99.78,45.07-100.1,100.74-100.2S367.36,247.07,367.46,302.24Z" transform="translate(0 0)"/><path id="SvgjsPath3284" class="cls-35" d="M358.85,156c0,50.52-41.39,91.43-92.34,91.43S174.17,206.48,174.17,156s41.39-91.43,92.34-91.43S358.85,105.43,358.85,156Z" transform="translate(0 0)"/></g><g id="svga-group-eyebrows-left-move"><g id="svga-group-eyebrows-left-rotate"><g id="svga-group-eyebrows-left"><path id="SvgjsPath4643" class="cls-1" d="M149.49,204.47c18.38-22.83,50.1-19,76-15.43,6.62,1,13.45,1.69,19.86,3.28,4.62,1.16,8.3,6.34,4.51,10.57-1.78,2-5.56,1.69-7.88,1.58C210.94,203.94,175.85,186.19,149.49,204.47Z" transform="translate(0 0)"/></g></g></g><g id="svga-group-eyebrows-right-move"><g id="svga-group-eyebrows-right-rotate"><g id="svga-group-eyebrows-right"><path id="SvgjsPath4644" class="cls-1" d="M383.64,203.52a44.63,44.63,0,0,0-17.33-7.08c-23.43-3.81-68,11.73-79.63,8.45-7.14-2-5.67-9.09-2.52-10.88,1.89-1.06,2.42-1.06,19.43-3.91C332.48,185.13,364.94,181.22,383.64,203.52Z" transform="translate(0 0)"/></g></g></g><g id="svga-group-nose-single-move"><g id="svga-group-nose-single"><path id="SvgjsPath3445" class="cls-4" d="M258.63,240.2s-3.46,27.06-4.93,32.34c-3.37,11.63-15.24,27.8-12.93,35.2,4.63,14.69,18.6,11,26,10.89,6.83-.11,19.86,3.8,22.59-5.82.84-3.06-1.05-10.88-1.05-10.88s-6.52,7.61-21.85,6.76c-4.42-.21-11.45-5.07-11.56-11.94-.1-9.3,4.41-17.13,5.46-26.43C260.94,263.35,258.63,240.2,258.63,240.2Z" transform="translate(0 0)"/><path id="SvgjsPath3446" class="cls-13" d="M279.22,314.4c2.63,0,3.36.84,3.36,1.8s-.84,2.53-3.36,1.79a31.16,31.16,0,0,0-7.67-.42S276.6,314.4,279.22,314.4Zm-25.21,0c-2.63,0-3.36.84-3.36,1.8s.84,2.43,3.36,1.79a31.17,31.17,0,0,1,7.67-.42S256.64,314.4,254,314.4ZM288.15,302s3.68,4.76,2.94,9.73-8.19,7-8.19,7,5.15-3.7,5.78-8.14C289,308.37,288.15,302,288.15,302Zm-45.27-4.86s-2.63,6.55-1.9,10.57c1.37,7.29,9.14,10.15,9.14,10.15s-4.83-5-6.51-9.41C241.72,303.72,242.88,297.17,242.88,297.17Z" transform="translate(0 0)"/><path id="SvgjsPath3447" class="cls-3" d="M279.12,305.52c2.52-2.22,2.83-3.38,2.31-4.23s-2.1-1.37-4.2,1.27c-2.42,2.85-7.57,5-7.57,5S276.6,307.63,279.12,305.52Z" transform="translate(0 0)"/></g></g><g id="svga-group-beardwrap"><g id="svga-group-beard-single-move"><g id="svga-group-beard-single"><path id="SvgjsPath3298" class="cls-1" d="M266.51,68.54Z" transform="translate(0 0)"/></g></g></g><g id="svga-group-mustache-single-move"><g id="svga-group-mustache-single"><path id="SvgjsPath3296" class="cls-1" d="M266.51,68.54Z" transform="translate(0 0)"/></g></g><g id="svga-group-hair-front"><path id="SvgjsPath4677" class="cls-1" d="M395,258.48c-10.61-27.9-5.89-48.83-8-90.69-3.15-64.47-18.38-56.55-53.57-59.08C279.12,104.8,260.31,80,219.87,80,198,80,172.49,89.79,153,106.8c-15.65,106,6.52,97.25-16.6,150.84-14.7-15.22-16.59-38.69-27.41-69.45-8.62-25.47-6.52-26.84-16.08-39.11,6.1,1.06,6.73,1.06,9.46,1.06-4.83-10.46-11-29.17-13.34-37.2,5.77-2.75,11.87-9.52,16-14.49A82,82,0,0,1,99.8,82.28c.21-.1,1-.42,1-.42h0c14-5.92,16.81-38.9,26.58-47.25,4.72-4.44,9.34-6.13,13.65-8.45a86,86,0,0,1,1.37-8.88c23.11-6.13,30.15-3,62.82-12,11.24-3.06,19-5.28,42.65-4.22,8.72,4.33,39.5,25.57,62.71,3.91C328.49,16,344,17.49,366.31,30.07c37.4,21.67,42.44,36.89,40.23,72.08,25.85,34,20.07,74.52,8.83,115.22C408.43,242.31,401.61,250.56,395,258.48Z" transform="translate(0 0)"/><path id="SvgjsPath4678" class="cls-36" d="M394.57,224.24c-2.42-19.56,7.35-36.57,9.87-53.7-2.41,4.86-7.35,7.3-7.35,12.16,0-17.13,7.35-31.71,4.94-48.73-2.42,4.86-4.94,7.29-9.88,9.72,7.35-17.12,0-36.57-12.29-51.26,2.42,7.29,4.94,12.16,4.94,19.55C370,90,335.53,87.57,311,75.41c4.94,7.3,14.81,12.16,22.16,17.13-34.45-12.16-66.49-26.85-98.53-41.44,5.46,5.39,9.56,14.69,16.17,18.29,2.84.42,2.42,1.27,0,0-29.51-4.13-60.61-7.4-87.61-20.72,0,9.72,7.36,17.12,14.81,22-7.35,0-14.81-7.3-19.74-4.87-7.36,4.87,7.35,9.73,4.93,14.59C155.79,85.24,148.33,78,141,78c4.93,7.29,0,19.55,4.93,26.85C141,102.37,136,97.5,136,99.93c-2.42,9.73-7.35,12.16-7.35,19.56,0,12.15,7.35,24.42,7.35,36.57,0-3.91-4.73-3.17-6.62-5.18,12.29,34,11.77,70,6.41,106.12l.63.64c23.11-53.59.95-44.82,16.6-150.84C172.6,89.89,198.12,80,220,80c40.45,0,59.36,24.84,113.56,28.75,35.09,2.53,50.43-5.39,53.58,59.08,2,41.86-2.73,62.79,8,90.69h0c1.58-18.07,6.94-34.67,6.94-51.26A97,97,0,0,0,394.57,224.24Z" transform="translate(0 0)"/><path id="SvgjsPath4679" class="cls-37" d="M412.43,198.66c-.74,1.58-5.57,2.11-5.57,3.7,0-7.3,8.61-12.79,7.25-25.05,0,.95-7.78,7.18-8.51,8.14-.53,2.43,10.61-26,10.61-35.52-3.68,6-6.73,6-6.73,10.89V127c0,4.87-4.93,12-4.93,16.92,2.31-18.18-8.41-39.22-10.51-57.29-1.26,4.33-3.67,9.51-1.78,13.21C384.9,90.1,387.32,73,375,65.69c-2.42,4.86-2.42,9.72-4.94,14.58-7.35-9.72-17.23-17.12-22.16-26.84V65.58C335.63,55.86,318.41,51,311,36.3V53.43c-9.88-2.43-25.84-11.21-30.78-18.5,0,7.29,8.61,18.5,8.61,25.79C269,51,254.33,36.3,234.58,26.58c0,4.86,4.93,9.72,2.41,14.59-9.87-4.87-29-4.87-33.93-14.59,0,7.29,7.67,14.59,7.67,22-22.17-2.43-27.1-9.3-47.38-18.49-2.41,4.86-5.14,11.2-7.67,16.06-4.93-4.86-7.35-9.72-14.81-9.72,0,7.29,7.36,17.12,2.42,24.42C140.87,63.26,131,53.53,131,56c-4.94,9.73,0,24.42-4.94,34.14,0,2.44-7.35-4.86-12.29-2.43,9.56,14.17,2.94,30.66,9.24,44.93.21.42.42,1,.63,1.37-.21-.42-.42-.95-.63-1.37-3.15-5.92-11.87-6.45-14.18-13.22,0,17.76,10.19,33.62,13.87,51.06,1.26.74,1.89,2.11.84,5.07-.21-1.69-.53-3.38-.84-5.07-1.89-1.06-5-.85-6.51-2.33,11.66,23,15.23,62.58,19.43,88.68,8.72-37.52,4.2-76.74-6.41-106.12a3.19,3.19,0,0,1-.73-2.11,17.6,17.6,0,0,1,.73,2.11c1.89,2.11,6.62,1.27,6.62,5.18,0-12.16-7.35-24.42-7.35-36.57,0-7.3,4.93-9.73,7.35-19.56,0-2.43,4.94,2.43,9.87,4.87-4.93-7.3,0-19.56-4.93-26.85,7.35,0,14.81,7.29,22.16,2.43,2.42-4.86-12.29-9.73-4.94-14.59,4.94-2.43,12.3,4.86,19.75,4.86-7.35-4.86-14.81-12.15-14.81-22,27,13.32,58.09,16.59,87.61,20.72-6.72-3.6-10.82-12.9-16.17-18.29,32,14.59,64,29.28,98.53,41.43-7.35-4.86-17.23-9.72-22.16-17.12,24.58,12.16,59.14,14.59,73.85,36.57,0-7.29-2.42-12.15-4.94-19.55,12.29,14.58,19.75,34.14,12.29,51.26,4.94-2.43,7.35-4.86,9.88-9.72,2.41,17.12-4.94,31.71-4.94,48.73,0-4.87,4.94-7.3,7.35-12.16-2.41,17.12-12.29,34.14-9.87,53.7a124.07,124.07,0,0,1,7.35-17.13c0,16.6-5.36,33.19-6.93,51.27,2-2.43,4-4.87,6.09-7.72C400.77,232.59,408,217.79,412.43,198.66Z" transform="translate(0 0)"/><path id="SvgjsPath4680" class="cls-1" d="M249.49,68.75a47.44,47.44,0,0,1-12.18-.21c-16.5-2.22-70.49-4.33-73.43-21.14,2.62,8.14,18.28,10.47,30,12.69,0,0,8.3,1.58,21.43,3.06C240.14,66,234.89,67.91,249.49,68.75Zm56.1,13.43C246.76,56.91,251,59.66,237.2,51.1c18.07,15,24.27,15,55.68,29.28,14.6,6.55,17.44,6.24,37.29,10.89C316.31,85.88,314.62,86,305.59,82.18Zm6.72-7.3c24.37,19.88,54.21,14.91,73.22,36.58C370.3,87.46,336.68,89.89,312.31,74.88ZM167.76,66.53c-6.61-2-9.87-1-13,1,10.4-4.86,21.32,7.09,33.82,3.7C182.79,71.92,167.76,67.06,167.76,66.53Zm-7,16.18c-5.78-1.8-12.82-4.87-17.65-4.66-2.52.11-3.15,1.17-3.15,1.17,2.41-2.75,13.76,2.64,20.69,4a12.54,12.54,0,0,0,3.36.32S162.51,83.23,160.73,82.71Zm-28,28.64c1.68-4.65,3.57-9.2,3-13.32a6.48,6.48,0,0,0-.73-2.32c1.15,4.86-.74,7.71-4.1,15-7.46,15.75,2.31,28,6,44.81C135.62,136.19,126.59,127.63,132.68,111.35ZM400.35,136.4c.84,5.29.52,8.88-.43,17.23a257.45,257.45,0,0,1-5.14,27.9C399.92,169.7,404.23,149.61,400.35,136.4ZM404,174.24c-8.3,22.94-9.66,31.29-11,49.36C402.13,181.64,397.72,202.67,404,174.24Z" transform="translate(0 0)"/><path id="SvgjsPath4681" class="cls-38" d="M303.07,20c-15.13,2.32-30.78,4.22-59.14-12.79C271.24,19.39,284.58,20.55,303.07,20Zm33.3,4.75c-14.92-5.39-16-11.63-27.21-15.11,10.19,4.54,10.19,10.46,23.53,16.49,6.52,3.06,29.1,9.19,43,18.18C363.47,33.55,355.28,31.76,336.37,24.78ZM169.55,19.39C198.12,20,202.64,12.73,235.42,9,205.9,8.61,202.85,15.59,169.55,19.39ZM244,20c11.45,1.37,28,11.52,33.2,23.14C273.44,30.17,257.16,20,244,20Zm64,3.59c11.45,6,15.54,18.81,29.52,21.35C323.76,40.53,321.14,28.69,308,23.62Zm-19.65,2.43c2.94,5,7.25,10,18.49,17.12C293.61,32.5,291.41,30.28,288.36,26.05Zm57.25,11.63c12.61,1.48,25.74,13.84,27.11,27.48C373.24,51.74,361.06,37.89,345.61,37.68ZM388.26,58.5c-5.67-7.19-10.71-8.88-13.13-9.83,3.47,1.8,7.36,4.23,12,10.68,0,0,8.51,11.09,12,23.46A52.51,52.51,0,0,0,388.26,58.5ZM154.11,23.62c.42-.95,13.13,4.54,14.07,5,3,1.16,18.18,7.18,23.43,7.82C189.19,35.77,154.32,20.87,154.11,23.62ZM133.2,39a77.69,77.69,0,0,1,4.94,7.92s.74,1.27,1.37,2.54,1.26,2.64,1.26,2.64c1.68,3.7,2.41,6,2.52,8.88C144,53.64,137.72,43.49,133.2,39Zm-7.35,7.29c-6.2,15-6.09,23.68,0,39C122,69.81,121.23,62.62,125.85,46.24Z" transform="translate(0 0)"/><path id="SvgjsPath4682" d="M407.38,101.73c.53-8.56.84-13.85,0-22.3-2.83-24.74-17.75-36.89-40.65-50.21C344.14,16.54,328.49,15.16,310.53,4c-23,22.09-54,.42-62.51-3.7-41.28-1.8-35,6.13-80.68,11.63-16.8,1.9-23.84,4.22-23.84,4.22-.63.22-1.26.32-1.89.53a60.39,60.39,0,0,0-1.47,9c-3.79,1.9-8.62,3.8-13.45,8.35-10,8.67-12.82,42-26.68,47.25h0a7.17,7.17,0,0,1-1.37.42,88.4,88.4,0,0,0,5.15,16.59c-3.89,4.76-10.3,11.74-16,14.17,1.37,4.86,8.2,26.21,13.13,36.89-2.73,0-4.93-.43-10.08-1.38C101.69,161.56,99,161.66,108,188.41c11,31.28,12.82,55.06,28.26,70.5,13.87-26,12.71-38.06,12.82-47.36.31-12.79-6-45,4.72-104.32,22.8-19.77,55.05-31.08,85.72-24.21,32,7.19,48.12,23.26,93.6,26.53,35.41,2.54,49.69-5.39,52.84,58.35,2.1,42.38-2.83,63.42,8.41,92.17,6.62-7.82,13.86-15.64,21.43-42.6C427.24,177.52,433.44,136.3,407.38,101.73Zm9.35,95c-8.51,40.48-13.55,47.77-22.27,60.88-7.14-21.67-5.15-42.6-4.41-64.8,3.68-95.65-20.69-84.87-56.31-87.62-43.59-3-60.61-19.24-93-25.69-29.51-6-62.19,1.8-89.5,27.17-14.92,66.17,1.47,101.47-11.76,135-2.84,7.19-1,9-3.16,14.27-11.45-17-14.49-41-18.27-53.17-11.77-29.7-11.45-39.43-24.27-53.59a31.29,31.29,0,0,0,10.4.63h0c-.84-2.43-11.14-30.44-14.18-37.41,5.88-2.86,11.66-9.09,15.65-14.27-3.15-9.94.74,4.65-5.15-16.28,18.18-5.39,16.29-39.32,34.77-51.69,2.42-1.58,4.63-3,7-4.44.53-4.54.21-1.9,1.26-8.88,21.64-4.43,30.57-.1,62-9.83,23.85-5.7,41-5.49,43.39-5.28,15.23,9.41,23.74,14.69,41.6,13.53,8.19-.64,14.7-4.55,20.38-10.36,9.87,7.29,20.9,11.73,34.45,18,54.74,24.84,59.67,45,59.67,78.43a87.28,87.28,0,0,1,9.14,17.54C425.56,146.55,421.88,173.18,416.73,196.76Z" transform="translate(0 0)"/></g><g id="svga-group-glasses-single-move"><g id="svga-group-glasses-single"><path id="SvgjsPath4645" class="cls-39" d="M373.87,268.42c-5.78,5.39-15.33,7.4-33.4,7.4-24.06,0-39.82-2.64-50.22-23.15-8.09-16-11.34-33.08-7.46-39,5.47-8.14,21.12-13.64,38.56-15.33C351.71,212.61,373,241.26,373.87,268.42ZM197.6,197.81c-18.81.53-37.19,5.71-45,17.23-5.36,7.82-4.2,30.65-.53,41.33,4.94,14.59,12.5,19.45,40.45,19.45,24.05,0,39.81-2.64,50.21-23.15a66.24,66.24,0,0,0,2.84-6.24C237.62,226.56,220.08,208.28,197.6,197.81Z" transform="translate(0 0)"/><path id="SvgjsPath4646" class="cls-40" d="M380.91,256.37c-1.78,5.18-3.89,9.09-7,12.05-.84-27.16-22.16-55.81-52.52-70.08,23.11-2.22,49.27,2.43,59,16.7C385.74,222.86,384.59,245.69,380.91,256.37Zm-130.68-42.7c-6.83-10.36-30-16.39-52.63-15.75,22.58,10.36,40.13,28.75,48.11,48.62C251.59,232.48,253.59,218.85,250.23,213.67Z" transform="translate(0 0)"/><path id="SvgjsPath4647" class="cls-41" d="M394,203.84c-25.1-13.32-89-17.13-112,.31-2,1.17-10.4-1.26-15.44-1.26-4.84,0-13.34,2.53-15.45,1.26-23-17.44-87-13.63-112-.31-3.57,1.9-4,11-.84,12.36,2.21,1,3.68,2.44,3.57,4.87-.84,13.74,3.05,31.49,4.73,36.36,2.1,6.34,6,18.07,22.9,20.93,14.39,2.43,40.44,3.59,54-.43,24.58-7.29,35.08-44,35.5-56.55h0c.95-4.44,14.29-4.44,15.34,0h0c.42,12.48,10.93,49.26,35.51,56.55,13.55,4,39.71,2.86,54,.43,16.92-2.86,20.7-14.7,22.9-20.93,1.68-5,5.47-22.73,4.73-36.36-.1-2.43,1.37-3.81,3.57-4.87C398,214.83,397.61,205.74,394,203.84ZM220.71,271.49c-12.5,3.69-35.3,3.91-48.53,1.58-11.14-1.9-15.87-7.93-18.91-17.12-3.68-10.78-4.62-33,.42-40.27,16.6-24.32,83.41-19.66,95.49-1.38C254.54,222.44,244,264.61,220.71,271.49Zm159-15.54c-3.16,9.19-7.78,15.22-18.91,17.12-13.24,2.33-36,2-48.54-1.58-23.32-6.88-33.82-49.05-28.47-57.19,12.19-18.18,78.9-22.94,95.5,1.38C384.38,223.07,383.43,245.27,379.76,256Z" transform="translate(0 0)"/><path id="SvgjsPath4648" class="cls-42" d="M312.21,271.38c6.83,2,16.91,3.06,26.68,3.06-30.88,3-37.92-8.24-42.12-12.57-8.72-8.78-14-21.78-14.4-40.59C282.48,236.08,293,265.67,312.21,271.38ZM251,204.05c-23-17.44-87-13.74-112-.32C196.13,187.77,229.43,196,251,204.05Zm-78.78,69c-11.14-1.9-15.87-7.93-18.91-17.12-3.26-9.62-4.31-28.33-1-37.42-4.51,10.25-2.73,30.23.63,40.27,4,11.73,11.14,17.55,42.65,15.75A139.3,139.3,0,0,1,172.18,273.07Zm224.7-62.68c-.11-2.75-1.16-5.71-2.94-6.66-24.58-13.11-86.56-16.91-110.62-.63C315.78,190.2,362.42,188.41,396.88,210.39Z" transform="translate(0 0)"/></g></g></g></g></g></svg>